<?xml version="1.0" encoding="utf-8"?>
<!-- Generator: Adobe Illustrator 23.0.0, SVG Export Plug-In . SVG Version: 6.00 Build 0)  -->
<svg version="1.1" id="Layer_1" xmlns="http://www.w3.org/2000/svg" xmlns:xlink="http://www.w3.org/1999/xlink" x="0px" y="0px"
	 viewBox="0 0 792 792" style="enable-background:new 0 0 792 792;" xml:space="preserve">
<style type="text/css">
	.st0{fill:#DF1F26;}
	.st1{fill:#7D191E;}
	.st2{fill:#722A23;}
	.st3{fill:#EA6767;}
	.st4{fill:#EF4230;}
	.st5{fill:#F04B44;}
	.st6{fill:#EE2D24;}
	.st7{fill:#F05044;}
	.st8{fill:#DC2726;}
	.st9{fill:#EB3824;}
	.st10{fill:#5D1214;}
	.st11{fill:#F15956;}
	.st12{fill:#F0514D;}
	.st13{fill:#F15C5E;}
	.st14{fill:#EE7A80;}
	.st15{fill:#F04B41;}
	.st16{fill:#F04D4A;}
	.st17{fill:#F15D60;}
	.st18{fill:#F15854;}
	.st19{fill:#F04943;}
	.st20{fill:#F16263;}
	.st21{fill:#E73D36;}
	.st22{fill:#FAC4CA;}
	.st23{fill:#F69797;}
	.st24{fill:#F7ADB4;}
	.st25{fill:#F7A6A8;}
	.st26{fill:#F69A9E;}
	.st27{fill:#F37B72;}
	.st28{fill:#F48886;}
	.st29{fill:#F59294;}
	.st30{fill:#F7A2A1;}
	.st31{fill:#F8A8A1;}
	.st32{fill:#F2686A;}
	.st33{fill:#F8ACA8;}
</style>
<g>
	<polygon class="st0" points="481.75,255.89 477.13,277.48 530.52,274.2 530.52,247.19 	"/>
	<g>
		<path class="st1" d="M176.12,300.52l-15.24-59.66c0,0-3.92-10.89,4.35-12.63c8.27-1.74,10.89,9.15,10.89,9.15l16.98,61.41
			C193.11,298.78,185.71,307.49,176.12,300.52z"/>
		<path class="st2" d="M183.89,305.78L168.3,248.1c0,0-3.07-10.48-1.8-12.53s4.08,8.48,4.08,8.48l16.29,59.3
			C186.88,303.35,187.25,312.18,183.89,305.78z"/>
	</g>
	<g>
		<path class="st3" d="M202.19,478.19c0,0-14.63-2.72-22.11-23.82c-7.48-21.09-22.11-68.73-22.11-68.73s-18.44-68.53,18.17-85.13
			c36.61-16.6,63.49,27.97,63.49,27.97s29.5,65.07,28.25,106.82l0.04,2.36c0,0-42.01,11.64-31.52,47.85
			C236.38,485.52,222.23,477.42,202.19,478.19z"/>
		<path class="st4" d="M197.89,476.6l-23.61-83.29c0,0-7.96-30.91-3.06-61.85c4.9-30.94,35.68-20.73,42.14-12.23
			c6.46,8.5,23.45,39.08,28.89,61.51c5.44,22.43,9.75,28.54,14.73,61.51c0,0-30,14.5-20.6,43.27c0,0-12.16-8.49-34.2-7.32
			L197.89,476.6z"/>
	</g>
	<g>
		<g>
			<g>
				<path class="st5" d="M146.03,682.36c0,0,42.34,40.57,84.51,0.07s56.25-95.54,56.25-95.54s10.56-39.24,0.04-50.82
					c0,0-39.23-15.64-45.29-27.89l-71.91,88.11L146.03,682.36z"/>
				<path class="st6" d="M146.03,682.36c0,0,25.19-4.73,39.54-27.23c14.35-22.5,47.49-83.54,47.49-83.54s19.29-43.25,8.49-63.42
					l-71.91,88.11L146.03,682.36z"/>
			</g>
			<path class="st7" d="M202.19,478.19c0,0-95.95-2.94-113.01,156.66c0,0,1.22,46.91,45.08,49.95c0,0,21.93,3.65,34.72-32.89
				c12.79-36.55,33.21-64.57,33.21-64.57s35.63-56.65,39.28-79.19c0,0-6.67-16.46-5.09-22.63
				C236.38,485.52,218.52,475.89,202.19,478.19z"/>
			<path class="st8" d="M186.95,480.22c0,0-11.89,9.57,11.2,8.4c0,0,13.59,0.15,17.54,3.22c3.95,3.07,20.85,0,20.85,0
				s-0.52-4.45-0.16-6.32c0,0-18.96-9.35-34.2-7.32C202.19,478.19,188.54,478.63,186.95,480.22z"/>
		</g>
		<path class="st9" d="M106.47,608.61c0,0,32.97-106.83,77.42-114.23s53.99,3.24,53.99,3.24s1.34,6.79,3.58,10.53
			c0,0-5.84,18.96-46.57,29.24S106.47,608.61,106.47,608.61z"/>
	</g>
	<circle class="st10" cx="702.61" cy="268.77" r="12.87"/>
	<path class="st11" d="M503.43,67.89c0,0,62.22,28.03,75.92,147.73l-37.96,19.18L497.92,88.27L503.43,67.89z"/>
	<g>
		<path class="st12" d="M523.42,248.75c0,0,13.74-28.32,39.15-31.65c25.41-3.33,47.9,0,47.9,0s77.59,3.24,81.07,45.14
			s-42.33,58.15-42.33,58.15s-29.77,10.27-99.3,0C549.9,320.39,503.7,301.82,523.42,248.75z"/>
		<path class="st13" d="M568.81,231.13c0,0-33.51,12.68-33.51,34.86s16.75,34.41,16.75,34.41s37.31,11.51,77.17,4.73
			c39.87-6.79,52.59-26.72,52.59-26.72s12.72-21.63-13.15-36.47C642.8,227.09,568.81,231.13,568.81,231.13z"/>
	</g>
	<g>
		<path class="st14" d="M447.2,56.61c0,0,45.72-17.34,62.54,22.07s50.1,104.58,35.56,145.05c0,0-25.88,16.82-26.78,42.05
			c0,0-20.94-4.75-35.01,0c0,0-57.43-3.81-83.15-135.5C400.36,130.29,388.06,81.18,447.2,56.61z"/>
		<path class="st15" d="M461.31,65.22c0,0,29.12-7.07,39.94,17.06s51.08,117.35,44.05,141.46c0,0-23.65,10.9-26.78,42.05
			c0,0-21.13-5.77-35.01,0c0,0-45.08-17.52-56.73-91.16s0-85.28,0-85.28S432.36,73.23,461.31,65.22z"/>
	</g>
	<path class="st16" d="M535,722.51c0,0,90.36-7.16,58.4-96.64s-80.37-128.11-80.37-128.11s-6.81-6.31-42.86-12.24l-36.05-21.58
		l-43.68,24.29l107.48,163.21L535,722.51z"/>
	<path class="st17" d="M483.51,265.78c0,0-30.16,3.86-64.61,88.37c0,0-38.35,74.1-26,104.66s39.65,34.39,39.65,34.39
		s55.25,11.76,78.65-60.39s38.69-112.42,38.69-112.42l-31.37-54.6"/>
	<g>
		<path class="st18" d="M267.9,437.67c0,0,82.37-8.03,122.55,7.41c0,0-5.45,21.12,28.3,43.15c0,0-44.73,25.55-47.3,61.96
			c0,0-80.38-12.39-84.66-14.18c-4.27-1.78-41.74-17.32-45.31-27.85c0,0-5.86-11.68-5.09-22.63c0,0-10.74-25.96,20.6-43.27
			C256.98,442.25,264.54,437.96,267.9,437.67z"/>
		<path class="st19" d="M390.45,452.55c0,0-18.68-1.4-32.81,3.96c-14.13,5.36-59.92,6.33-59.92,6.33s-41.9-1.95-45.79,19.49
			s142.86,24.47,142.86,24.47h36.91l2.44-27.21L390.45,452.55z"/>
	</g>
	<g>
		<path class="st20" d="M371.44,550.18c0,0-10.65,123.22,98.73,182.68c0,0,39.93,11.38,64.83-10.35
			c24.9-21.73-7.24-72.43-7.24-72.43s-38.46-57.94-52.51-108.65s-42.7-48.22-42.7-48.22l-13.81-4.98
			C418.74,488.22,374.47,513.22,371.44,550.18z"/>
		<path class="st21" d="M541.96,682.42c0,0-118.75,5.04-155.15-103.16c0,0-9.49-61.6,34.4-75.79c0,0-13.57-4.16-12.56-8.53
			l10.08-6.72l13.81,4.98c0,0,15.99,0.07,25.26,13.05l12.36,43.93l35.02,68.57L541.96,682.42z"/>
	</g>
	<path class="st22" d="M457.81,506.25c0,0-7.39,8.25-10.26,7.84c0,0,37.66,81.78,69.09,131.59c31.43,49.81,25.32,36.73,25.32,36.73
		s-5.64-18.66-14.21-32.34s-48.04-79.58-52.51-108.65C475.24,541.42,466.05,513.57,457.81,506.25z"/>
	<g>
		<path class="st23" d="M515.25,318.26h7.18c0,0-8.05-10.92-9.2-15.52C513.24,302.74,512.09,311.94,515.25,318.26z"/>
		<g>
			<path class="st24" d="M440.45,126.68c0,0-0.69,31.87,4.8,53.8c0,0,18.5,7.54,21.25,11.65c0,0,1.37-25.02-5.83-49
				C460.67,143.13,442.85,133.19,440.45,126.68z"/>
			<path class="st25" d="M507.04,194.27c0,0,19.07-0.91,20.28,0c1.21,0.91-3.94-30.57-11.5-46.01h-19.98
				C495.84,148.26,506.74,168.24,507.04,194.27z"/>
			<path class="st26" d="M569,274.2h63.83c0,0,2.92-10.72-3.53-13.33l-43.29-4.14C586.02,256.73,570.26,255.6,569,274.2z"/>
			<path class="st27" d="M208.51,510.82l6.54-1.53c0,0,3.71,7.85,0,11.55s-8.28,4.36-8.28,4.36S210.25,513.65,208.51,510.82z"/>
			<path class="st28" d="M167.06,516.15l14.14,1.1c0,0,2.17,3.1-1.74,7.96c-3.91,4.86-7.18,15.08-7.18,15.08
				s-18.05,3.48-29.36,15.22L167.06,516.15z"/>
			<path class="st29" d="M352.58,478.02c0,0-6.49,10.6-6.27,15.89c0,0,10.81,4.43,18.81,3.78c0,0,3.46-11.46,1.3-16L352.58,478.02z"
				/>
			<path class="st30" d="M404.14,550.18c0,0,2.11,44.03,7.59,54.14l35.82,41.32l-19.37-60.31
				C428.17,585.34,423.54,568.14,404.14,550.18z"/>
			<path class="st31" d="M567.39,673.2l11.19-4.56c0,0,0.51-14.87-3.94-26.73l-11.22,4.87C563.41,646.78,568.41,661.28,567.39,673.2
				z"/>
			<polygon class="st32" points="549.39,665.89 492.54,547.7 530.35,616.44 			"/>
			<path class="st33" d="M473.48,299.27c0,0,10.05,2.96,12.42,1.77c2.37-1.18-4.14,25.43-4.14,25.43s-16.56,4.14-53.52,81.31
				L473.48,299.27z"/>
		</g>
	</g>
</g>
</svg>
